<?xml version="1.0" encoding="UTF-8"?>
<!--Generator: Apple Native CoreSVG 341-->
<!DOCTYPE svg
PUBLIC "-//W3C//DTD SVG 1.1//EN"
       "http://www.w3.org/Graphics/SVG/1.1/DTD/svg11.dtd">
<svg version="1.1" xmlns="http://www.w3.org/2000/svg" xmlns:xlink="http://www.w3.org/1999/xlink" viewBox="0 0 20.6953 20.4609">
 <g>
  <rect height="20.4609" opacity="0" width="20.6953" x="0" y="0"/>
  <path d="M0.59375 12.4531L9.73438 12.4531C10.0703 12.4531 10.3281 12.1953 10.3281 11.8594C10.3281 11.5391 10.0625 11.2734 9.73438 11.2734L0.59375 11.2734C0.265625 11.2734 0 11.5391 0 11.8594C0 12.1953 0.257812 12.4531 0.59375 12.4531Z" fill="white" fill-opacity="0.85"/>
  <path d="M0.59375 8.91406L9.73438 8.91406C10.0703 8.91406 10.3281 8.64844 10.3281 8.32031C10.3281 8 10.0625 7.74219 9.73438 7.74219L0.59375 7.74219C0.265625 7.74219 0 8 0 8.32031C0 8.64844 0.257812 8.91406 0.59375 8.91406Z" fill="white" fill-opacity="0.85"/>
  <path d="M0.59375 5.38281L9.73438 5.38281C10.0625 5.38281 10.3281 5.11719 10.3281 4.78906C10.3281 4.46875 10.0625 4.20312 9.73438 4.20312L0.59375 4.20312C0.265625 4.20312 0 4.46875 0 4.78906C0 5.11719 0.265625 5.38281 0.59375 5.38281Z" fill="white" fill-opacity="0.85"/>
  <path d="M20.2891 4.97656L20.2891 1.25C20.2891 0.75 19.8828 0.421875 19.3984 0.523438L14.3516 1.625C13.7578 1.75 13.4375 2.07812 13.4375 2.60156L13.4609 13.7109C13.5 14.2344 13.25 14.5859 12.7812 14.6797L11.1875 15.0156C9.21094 15.4219 8.28125 16.4141 8.28125 17.9141C8.28125 19.4141 9.42969 20.4609 11.0625 20.4609C12.5234 20.4609 14.6875 19.3984 14.6875 16.5156L14.6875 7.39062C14.6875 6.82812 14.8047 6.69531 15.3125 6.57812L19.7812 5.60156C20.0938 5.53125 20.2891 5.29688 20.2891 4.97656Z" fill="white" fill-opacity="0.85"/>
 </g>
</svg>
