<svg width="64" height="64" viewBox="0 0 64 64" xmlns="http://www.w3.org/2000/svg">
  <!-- 1. Der Hintergrund-Kreis in Orange -->
  <!-- fill="#E67E22" ist ein schönes, kräftiges Karotten-Orange -->
  <circle cx="32" cy="32" r="30" fill="#E67E22" />
  
  <!-- 2. Ein feiner weißer Rand (optional, hilft bei orangem Hintergrund) -->
  <circle cx="32" cy="32" r="30" fill="none" stroke="#ffffff" stroke-width="2" opacity="0.5"/>

  <!-- 3. Die Musiknote in Weiß -->
  <path fill="#ffffff" d="M44 16H24c-1.1 0-2 .9-2 2v22.5c0 .2 0 .3.1.5-.1.2-.1.3-.1.5a7.5 7.5 0 1 0 6 3V23h14v13.5c0 .2 0 .3.1.5-.1.2-.1.3-.1.5a7.5 7.5 0 1 0 6 3V18c0-1.1-.9-2-2-2z"/>
</svg>